<?xml version="1.0" standalone="no"?>
<!DOCTYPE svg PUBLIC "-//W3C//DTD SVG 20010904//EN"
 "http://www.w3.org/TR/2001/REC-SVG-20010904/DTD/svg10.dtd">
<svg version="1.0" xmlns="http://www.w3.org/2000/svg"
 width="626.000000pt" height="626.000000pt" viewBox="0 0 626.000000 626.000000"
 preserveAspectRatio="xMidYMid meet">

<g transform="translate(0.000000,626.000000) scale(0.100000,-0.100000)"
fill="#000000" stroke="none">
<path d="M0 5896 l0 -363 45 -17 c59 -23 127 -90 144 -144 21 -61 2 -135 -46
-184 l-36 -37 2 -90 c1 -53 -2 -91 -7 -91 -6 0 -29 16 -52 35 -23 19 -44 35
-46 35 -2 0 -4 -146 -4 -324 l0 -323 73 -5 c81 -5 116 -22 146 -72 17 -28 20
-54 23 -248 2 -120 -1 -216 -6 -215 -5 1 -11 -4 -14 -12 -3 -8 0 -11 7 -7 6 4
11 3 11 -2 0 -12 -29 -37 -44 -37 -6 0 -30 -7 -53 -14 l-43 -14 0 -71 c0 -57
3 -73 18 -82 24 -14 238 -9 268 6 13 7 21 17 18 22 -6 10 46 68 62 68 6 0 20
11 32 25 l22 25 -36 32 c-19 17 -49 59 -66 92 l-31 61 6 161 c3 94 10 171 17
184 6 12 9 28 6 36 -3 8 -1 14 4 14 5 0 14 10 21 21 7 13 7 19 1 15 -6 -3 -13
3 -17 14 -3 11 -12 20 -20 20 -7 0 -16 7 -19 16 -4 11 -13 14 -31 10 -20 -5
-23 -3 -18 11 4 11 3 14 -5 9 -7 -4 -12 -3 -12 3 0 5 -13 18 -29 27 -17 10
-28 21 -25 26 3 4 -3 8 -13 8 -23 1 -46 19 -61 47 -8 13 -12 73 -12 155 0 197
4 201 247 196 89 -2 159 0 156 5 -2 4 1 7 6 7 6 0 11 -7 11 -15 0 -8 4 -15 10
-15 5 0 9 3 9 8 -4 26 5 32 11 7 5 -19 8 13 7 87 -1 64 -1 115 1 114 1 -2 18
12 36 30 32 32 38 34 113 35 64 2 71 3 38 9 -26 5 -31 8 -15 9 19 1 21 4 12
13 -16 16 -15 31 1 23 6 -4 -1 5 -16 19 -25 24 -36 26 -110 26 -94 0 -174 18
-250 56 -63 32 -119 87 -111 108 3 9 11 13 17 9 6 -3 7 -1 3 5 -4 6 -13 9 -21
6 -8 -4 -12 -10 -9 -15 3 -5 1 -9 -4 -9 -6 0 -13 7 -16 16 -8 20 42 67 63 59
10 -4 12 -3 6 3 -18 17 -73 2 -79 -22 -5 -17 -8 -18 -15 -7 -6 9 -4 19 5 28
21 21 17 38 -11 51 -14 6 -26 18 -26 27 -1 8 -2 19 -3 24 0 5 -24 24 -51 43
-64 44 -111 113 -120 176 -16 120 103 249 257 277 24 5 35 11 32 20 -3 7 3 15
14 17 18 5 32 44 32 89 0 18 -11 19 -205 19 l-205 0 0 -364z m430 -1536 c0 -5
-5 -10 -11 -10 -5 0 -7 5 -4 10 3 6 8 10 11 10 2 0 4 -4 4 -10z"/>
<path d="M2360 6204 c0 -54 -10 -86 -37 -112 -7 -8 -11 -18 -7 -23 3 -5 2 -9
-3 -8 -15 4 -63 -13 -63 -22 0 -5 -7 -6 -15 -3 -12 5 -15 -3 -14 -42 1 -29 4
-38 6 -22 4 23 7 26 24 18 10 -6 28 -14 39 -20 14 -7 21 -6 27 5 7 11 56 15
258 19 138 2 262 5 278 5 26 1 38 16 17 23 -6 2 -13 30 -16 63 -4 44 -3 56 5
45 8 -11 11 3 11 58 l0 72 -255 0 -255 0 0 -56z m-73 -170 c-3 -3 -12 -4 -19
-1 -8 3 -5 6 6 6 11 1 17 -2 13 -5z"/>
<path d="M4426 6218 c-9 -24 -36 -65 -61 -93 -33 -36 -45 -57 -44 -80 0 -22 2
-25 7 -12 7 16 8 16 24 -2 16 -18 16 -20 0 -24 -9 -3 19 -5 63 -6 55 0 75 2
65 9 -10 6 -11 10 -2 10 6 0 12 8 13 18 0 14 2 14 9 -3 6 -13 9 13 9 75 1 62
6 105 15 123 l15 27 -48 0 c-48 0 -49 -1 -65 -42z"/>
<path d="M5228 6215 l-3 -46 -40 33 c-33 28 -49 34 -107 38 -43 3 -64 2 -58
-4 6 -6 10 -81 10 -169 l0 -159 -34 -34 c-19 -19 -40 -34 -47 -34 -10 0 -14
-17 -14 -65 l0 -65 35 -6 c66 -10 65 -12 -7 -13 -47 -1 -73 3 -73 10 0 6 -8
18 -18 27 -10 10 -12 13 -5 9 7 -5 16 -7 21 -5 5 1 -16 23 -47 47 -44 35 -50
38 -27 13 28 -30 25 -46 -3 -19 -11 10 -12 7 -7 -13 5 -22 4 -21 -10 5 -13 27
-14 27 -10 5 3 -14 6 -31 6 -38 0 -7 5 -10 10 -7 6 3 10 1 10 -4 0 -6 7 -11
16 -11 10 0 14 -6 10 -15 -5 -13 10 -15 99 -15 97 0 106 2 131 25 15 14 32 24
38 22 6 -2 26 7 45 20 40 27 121 53 167 53 18 0 36 5 39 10 5 8 12 7 23 -2 15
-11 15 -11 6 2 -6 8 -17 36 -24 62 -11 43 -10 51 9 92 21 43 96 106 127 106 9
0 13 23 16 75 l3 75 -57 0 c-45 0 -63 5 -78 20 -16 16 -33 20 -84 20 l-65 0
-3 -45z"/>
<path d="M5810 6214 c-11 -38 -11 -47 0 -54 8 -5 19 -6 25 -2 26 17 45 11 51
-16 10 -47 27 -72 48 -72 12 0 42 -20 68 -45 27 -25 52 -45 58 -45 5 0 10 -9
10 -20 0 -20 26 -69 44 -81 5 -4 5 -12 2 -18 -4 -6 -3 -11 3 -11 6 0 12 34 14
78 l3 77 2 -76 c2 -65 -1 -81 -21 -110 -13 -20 -37 -39 -57 -45 l-35 -12 -5
-77 -5 -78 -95 76 c-74 59 -102 76 -127 77 l-33 0 0 -55 c0 -30 -3 -55 -7 -55
-5 0 -33 18 -63 40 -66 48 -84 36 -45 -32 15 -26 25 -59 25 -83 0 -44 -30
-118 -61 -151 -14 -15 -17 -24 -10 -29 6 -3 9 -10 6 -15 -3 -4 2 -21 10 -36
10 -19 15 -61 16 -119 1 -54 4 -80 8 -65 7 24 8 23 14 -10 6 -25 10 -31 16
-21 7 11 10 10 18 -3 7 -12 9 -8 10 20 1 44 27 80 73 105 38 21 59 52 60 87 0
32 33 92 67 124 69 65 221 103 321 80 l42 -10 0 364 0 364 -70 0 c-67 0 -70
-1 -60 -19 5 -11 10 -32 9 -48 l-1 -28 -8 29 c-19 62 -30 66 -175 66 l-132 0
-13 -46z"/>
<path d="M3470 6237 c0 -5 -10 -5 -22 -1 -27 8 -23 2 11 -16 15 -8 21 -8 17
-1 -9 14 0 14 25 0 11 -5 17 -14 15 -18 -3 -4 6 -19 20 -32 20 -19 24 -20 18
-5 -7 18 -6 18 22 0 l29 -19 -32 40 c-24 28 -29 41 -20 47 13 8 7 9 -53 12
-16 0 -30 -3 -30 -7z"/>
<path d="M3610 6114 c0 -5 7 -18 15 -28 12 -16 15 -17 15 -4 0 8 -7 21 -15 28
-8 7 -15 9 -15 4z"/>
<path d="M1108 6103 c-11 -3 -15 -10 -11 -20 4 -9 2 -14 -3 -10 -7 4 -10 -37
-11 -111 0 -106 1 -110 7 -42 l6 75 1 -70 c1 -38 -2 -93 -6 -122 -5 -36 -3
-59 5 -75 23 -42 35 -120 25 -171 -9 -51 2 -76 37 -78 9 -1 4 -5 -13 -9 -29
-7 -29 -8 9 -9 22 0 49 -9 60 -18 20 -17 20 -17 7 0 -12 15 -12 17 3 11 9 -3
20 -20 25 -38 4 -17 13 -30 20 -28 6 1 11 -2 11 -8 0 -13 106 -13 170 1 28 6
59 7 68 3 9 -4 23 -8 30 -10 8 -1 23 -11 34 -21 14 -12 22 -14 25 -7 2 7 13
10 23 7 24 -6 107 21 132 44 22 19 23 51 3 77 -8 11 -13 28 -10 37 7 21 -13
30 -85 39 l-55 7 55 3 55 3 -68 8 c-64 7 -123 31 -113 47 2 4 -8 16 -23 26
l-26 20 20 -25 20 -24 -22 19 c-13 10 -20 22 -18 26 5 8 -23 69 -36 80 -7 7
-22 43 -21 51 1 4 -9 10 -21 13 -26 6 -57 54 -57 88 0 14 -13 37 -30 53 -16
15 -27 32 -24 37 7 11 -42 69 -51 60 -4 -4 -6 0 -3 8 9 27 -39 60 -85 59 -23
-1 -50 -3 -59 -6z"/>
<path d="M3644 6066 c-6 -7 -9 -25 -7 -42 2 -16 -2 -52 -10 -81 -8 -29 -10
-50 -5 -47 11 7 10 3 -4 -36 -10 -29 -12 -31 -23 -16 -12 15 -13 15 -19 -1 -4
-10 -4 -14 0 -11 7 8 34 -16 34 -30 0 -16 30 -23 50 -12 10 6 21 6 24 1 3 -4
54 -10 114 -13 60 -3 117 -10 128 -16 16 -8 25 -5 52 19 17 16 32 33 32 39 0
6 20 32 45 59 25 26 42 51 38 54 -3 4 0 7 7 7 11 0 10 4 -3 17 -15 15 -34 18
-120 16 -60 -2 -94 1 -83 5 19 8 19 9 -2 14 -11 3 -23 1 -25 -5 -2 -6 -11 -8
-21 -4 -9 4 -14 11 -11 17 4 6 -7 10 -25 10 -18 0 -33 6 -36 15 -6 15 -38 29
-75 34 -5 0 -8 4 -6 9 8 12 -37 10 -49 -2z"/>
<path d="M1980 5988 c0 -6 -7 -7 -15 -4 -10 4 -19 -2 -24 -17 -5 -12 -12 -20
-17 -17 -5 3 -10 -17 -11 -45 -1 -38 0 -44 7 -25 8 25 8 25 9 -5 1 -27 20 -74
21 -50 0 6 12 10 28 11 91 3 184 17 171 25 -12 7 -12 9 1 9 10 0 4 9 -15 26
-29 24 -29 25 -5 18 22 -5 21 -3 -9 20 -19 14 -37 26 -40 26 -3 0 3 -7 13 -15
11 -8 15 -15 9 -15 -6 0 -16 7 -23 15 -7 8 -9 15 -5 15 5 0 0 9 -9 19 -18 20
-86 27 -86 9z"/>
<path d="M3928 5983 c7 -3 16 -2 19 1 4 3 -2 6 -13 5 -11 0 -14 -3 -6 -6z"/>
<path d="M1310 5976 c0 -2 8 -10 18 -17 15 -13 16 -12 3 4 -13 16 -21 21 -21
13z"/>
<path d="M4089 5893 c-13 -16 -12 -17 4 -4 9 7 17 15 17 17 0 8 -8 3 -21 -13z"/>
<path d="M2017 5823 c18 -2 50 -2 70 0 21 2 7 4 -32 4 -38 0 -55 -2 -38 -4z"/>
<path d="M1879 5622 c6 -11 9 -34 6 -51 -2 -17 1 -31 6 -31 15 0 6 93 -9 98
-11 3 -12 0 -3 -16z"/>
<path d="M6015 5070 c-9 -10 -15 -37 -15 -68 0 -29 -3 -52 -6 -52 -3 0 -23 14
-44 30 -21 17 -48 30 -61 30 -19 0 -21 -2 -9 -10 13 -8 12 -10 -3 -10 -16 0
-15 -4 8 -35 37 -47 57 -120 50 -172 -4 -25 -2 -43 3 -43 5 0 12 -9 15 -20 3
-13 1 -18 -6 -14 -8 5 -7 2 1 -7 8 -9 12 -48 12 -120 0 -92 -3 -110 -21 -133
-15 -19 -16 -24 -5 -20 9 3 16 1 16 -5 0 -6 10 -12 23 -12 12 -1 4 -5 -18 -9
-24 -4 28 -8 133 -9 l172 -1 0 330 0 330 -24 15 c-35 23 -201 27 -221 5z"/>
<path d="M781 4697 c-1 -10 -5 -15 -11 -12 -5 3 -10 1 -10 -4 0 -6 5 -11 10
-11 6 0 10 -35 10 -85 0 -69 3 -85 15 -85 8 0 15 5 15 11 0 8 5 8 15 -1 13
-10 19 -8 36 14 11 14 27 26 35 26 20 0 18 51 -3 92 -23 42 -31 48 -70 48 -17
0 -34 6 -36 13 -3 7 -6 4 -6 -6z"/>
<path d="M818 4703 c6 -2 18 -2 25 0 6 3 1 5 -13 5 -14 0 -19 -2 -12 -5z"/>
<path d="M5498 4450 c-7 -11 -18 -20 -25 -20 -19 0 -16 -34 5 -52 18 -16 111
-40 124 -32 14 9 80 -26 109 -57 29 -31 30 -31 47 -13 36 37 7 103 -48 110
-42 5 -73 14 -87 26 -9 7 -18 11 -20 8 -1 -3 -19 7 -37 23 -42 32 -52 33 -68
7z"/>
<path d="M6060 3760 c61 -6 59 -7 -40 -9 -125 -2 -186 -7 -199 -15 -6 -4 -3
-19 6 -37 20 -40 11 -160 -16 -212 -16 -32 -17 -42 -6 -85 7 -26 11 -60 8 -75
-4 -22 -2 -26 11 -21 9 3 16 10 16 15 0 16 75 29 160 28 140 -2 162 -16 30
-20 l-115 -3 130 -6 c72 -3 139 -9 150 -13 11 -5 4 1 -15 12 -47 27 -32 26 24
-1 25 -12 43 -25 40 -30 -3 -4 0 -8 5 -8 8 0 11 64 11 194 l0 195 -35 26 c-18
15 -40 28 -47 29 -18 3 -55 25 -42 26 5 0 16 -6 24 -12 8 -7 6 -3 -4 10 -17
19 -28 22 -90 20 l-71 -1 65 -7z"/>
<path d="M0 3474 l0 -186 26 6 c14 4 34 15 45 24 16 15 17 23 8 55 -5 21 -14
35 -19 32 -14 -9 2 79 21 115 l19 35 -26 -30 -27 -30 22 39 c13 23 18 42 12
45 -5 3 -11 13 -13 21 -3 14 -50 60 -62 60 -3 0 -6 -84 -6 -186z"/>
<path d="M188 3593 c6 -2 18 -2 25 0 6 3 1 5 -13 5 -14 0 -19 -2 -12 -5z"/>
<path d="M5910 2990 c10 -7 -5 -8 -47 -5 -55 4 -63 2 -63 -13 0 -13 -2 -14 -9
-4 -7 11 -10 10 -15 -3 -10 -26 -7 -67 4 -60 6 4 10 -6 10 -22 0 -16 5 -34 12
-41 9 -9 8 -16 -5 -30 -16 -18 -16 -20 0 -34 17 -13 49 -28 130 -58 37 -14 93
-67 93 -87 0 -7 4 -13 10 -13 10 0 33 -39 45 -79 5 -18 4 -22 -5 -16 -9 5 -11
4 -6 -4 4 -6 12 -9 17 -6 5 4 9 -17 8 -47 0 -40 -3 -48 -10 -33 -7 17 -8 16
-7 -10 0 -16 0 -39 -1 -50 -1 -17 -3 -18 -11 -5 -7 11 -10 -1 -10 -40 0 -72
-10 -131 -21 -124 -5 3 -9 1 -9 -5 0 -5 -5 -22 -12 -38 -6 -15 -10 -32 -9 -36
1 -5 -3 -5 -9 -2 -7 4 -14 -2 -17 -15 -4 -13 -11 -19 -20 -16 -21 9 -38 -4
-22 -16 9 -6 2 -7 -21 -4 -19 3 -28 3 -20 -2 19 -9 24 -32 7 -32 -9 0 -11 -19
-9 -75 4 -78 -1 -86 -34 -59 -10 8 -12 12 -4 8 9 -4 12 -3 7 2 -5 5 -13 10
-18 10 -5 1 -14 2 -20 3 -5 0 -7 5 -4 11 4 6 -1 7 -11 3 -13 -5 -16 -3 -11 10
4 11 2 14 -8 11 -11 -5 -68 27 -85 47 -3 3 -17 9 -32 13 -16 3 -28 11 -28 16
0 6 -4 10 -10 10 -5 0 -10 -7 -10 -15 0 -8 -4 -15 -10 -15 -17 0 -33 -40 -21
-54 13 -15 3 -76 -11 -76 -6 0 -7 -7 -4 -16 3 -8 1 -20 -4 -27 -50 -60 -79
-147 -49 -147 5 0 7 -4 4 -10 -11 -18 6 -11 37 15 16 14 39 25 50 25 17 0 19
2 7 16 -11 13 -9 14 12 9 14 -3 75 1 135 10 61 9 124 13 140 10 77 -15 178
-24 262 -25 l92 0 0 469 0 469 -35 12 c-18 6 -50 22 -70 35 -19 14 -35 22 -35
19 0 -4 -19 11 -42 32 -42 38 -95 121 -84 131 3 4 -8 19 -24 35 -17 15 -30 33
-30 38 0 6 -10 10 -22 10 -19 0 -20 -2 -8 -10z"/>
<path d="M0 2216 c0 -441 1 -465 18 -470 10 -4 32 -20 48 -37 l29 -30 3 -183
c2 -140 0 -191 -11 -217 l-14 -34 41 -20 c76 -38 80 -53 77 -238 -2 -89 -7
-182 -11 -207 -7 -41 -8 -39 -5 20 3 76 -1 90 -26 90 -11 0 -22 7 -25 15 -3 8
-14 17 -25 20 -10 4 -22 17 -25 31 -7 27 -13 29 -49 12 l-25 -11 0 -270 0
-269 26 -21 c56 -44 63 -128 14 -172 -18 -16 -20 -16 -20 -2 0 10 -4 17 -8 17
-4 0 -9 -54 -10 -120 l-2 -120 210 0 209 0 10 38 c6 20 11 48 12 62 0 23 1 23
9 5 8 -16 9 -13 7 15 -3 45 -37 63 -133 68 -85 5 -157 -22 -204 -75 -17 -18
-30 -28 -30 -20 0 20 66 83 108 103 50 24 156 29 214 11 l48 -15 0 27 c0 23
-7 31 -42 47 -144 65 -219 190 -184 307 8 26 12 64 9 85 -4 31 0 44 21 69 34
40 63 50 171 59 162 13 266 10 325 -9 72 -24 151 -78 186 -128 19 -28 30 -36
35 -27 6 10 9 9 13 -2 2 -8 7 -22 9 -30 4 -12 12 120 10 168 -1 7 1 11 4 8 3
-3 15 1 27 9 14 10 51 16 116 17 l95 2 -85 6 -85 6 88 2 c83 2 88 3 99 27 8
19 14 22 19 13 5 -8 8 6 7 32 -1 25 2 56 6 70 6 19 5 22 -3 10 -6 -8 -11 -10
-11 -4 0 13 33 44 47 44 13 0 27 29 24 49 -1 7 2 10 7 7 13 -8 25 40 16 66 -4
13 -12 18 -25 15 -15 -4 -19 0 -19 18 0 19 -36 55 -60 61 -53 11 -111 71 -103
105 4 16 2 20 -8 17 -8 -3 -14 -13 -14 -22 0 -10 -9 -22 -20 -28 -11 -6 -24
-17 -28 -25 -4 -7 -13 -13 -19 -13 -9 0 -9 3 0 12 7 7 12 16 12 21 0 5 -15 -8
-34 -27 -18 -20 -38 -36 -45 -36 -7 0 -11 -33 -11 -102 0 -70 -3 -98 -10 -88
-7 11 -10 2 -10 -33 0 -27 -4 -47 -10 -45 -11 4 -91 65 -163 125 -51 43 -51
43 -133 43 -102 0 -171 14 -249 51 -129 60 -205 165 -205 281 0 70 16 113 67
175 21 26 32 43 24 39 -10 -7 -12 -4 -7 12 5 15 2 22 -14 27 -33 11 -89 64
-111 106 -38 76 -18 162 52 223 22 18 39 38 39 45 0 8 8 10 22 6 16 -4 19 -4
9 3 -11 8 -10 12 5 21 16 9 13 10 -21 11 -27 0 -35 3 -26 9 12 8 -7 13 -91 23
-9 1 -15 5 -12 9 2 4 -4 13 -13 20 -37 31 -44 74 -42 264 1 101 -2 189 -6 195
-4 7 -22 18 -41 26 -69 29 -64 63 -64 -450z"/>
<path d="M5555 1680 c-3 -6 1 -7 9 -4 18 7 21 14 7 14 -6 0 -13 -4 -16 -10z"/>
<path d="M5403 1625 c0 -8 4 -15 9 -15 4 0 8 7 8 15 0 8 -4 15 -8 15 -5 0 -9
-7 -9 -15z"/>
<path d="M5430 1630 c0 -5 7 -10 15 -10 8 0 15 5 15 10 0 6 -7 10 -15 10 -8 0
-15 -4 -15 -10z"/>
<path d="M5766 1165 c-9 -16 -15 -22 -12 -12 8 25 -2 21 -32 -14 -30 -36 -32
-94 -4 -116 10 -7 13 -13 7 -13 -5 0 1 -7 14 -16 12 -9 31 -30 41 -46 l18 -30
1 116 c1 64 4 124 7 134 5 13 4 14 -4 3 -8 -11 -11 -10 -14 5 -3 16 -7 15 -22
-11z m-12 -161 c3 -8 2 -12 -4 -9 -6 3 -10 10 -10 16 0 14 7 11 14 -7z"/>
<path d="M5317 1143 c-17 -17 -5 -60 22 -83 17 -13 28 -27 25 -32 -3 -4 52 -8
123 -8 86 0 123 3 113 10 -11 7 -11 10 -2 10 7 0 10 5 7 10 -3 6 -40 10 -81
10 -48 0 -73 4 -69 10 6 9 -17 15 -40 10 -5 -1 -7 2 -3 5 9 10 -35 45 -56 45
-9 0 -16 5 -16 10 0 11 -13 13 -23 3z m231 -110 c-10 -2 -28 -2 -40 0 -13 2
-5 4 17 4 22 1 32 -1 23 -4z"/>
<path d="M991 1074 c0 -11 3 -14 6 -6 3 7 2 16 -1 19 -3 4 -6 -2 -5 -13z"/>
<path d="M6222 973 c-12 -2 -27 -13 -33 -24 -5 -11 -14 -17 -20 -14 -5 4 -8 1
-7 -7 2 -7 -3 -12 -9 -10 -7 1 -12 -4 -10 -10 1 -7 -4 -12 -11 -10 -8 1 -11
-2 -7 -8 7 -12 -25 -41 -36 -34 -4 2 -5 -5 -2 -16 4 -14 -6 -30 -33 -54 -33
-30 -38 -39 -36 -70 l4 -36 -72 0 c-78 0 -123 20 -140 64 -6 15 -9 -3 -10 -59
-3 -141 -13 -191 -45 -225 -16 -16 -43 -33 -62 -36 -32 -6 -33 -8 -33 -54 0
-45 2 -48 29 -53 59 -12 71 -38 71 -159 l0 -108 144 0 c136 0 145 -1 180 -25
31 -21 49 -25 106 -25 l70 0 0 95 c0 57 -4 95 -10 95 -5 0 -10 -7 -10 -16 0
-14 -3 -14 -15 -4 -14 11 -19 7 -16 -12 2 -12 -6 -9 -23 8 -10 10 -16 11 -16
3 0 -15 -92 -4 -136 17 -41 20 -75 67 -81 115 -5 36 -2 43 38 83 34 33 56 46
96 54 49 11 111 6 156 -13 16 -7 17 10 17 274 0 155 -3 280 -7 280 -5 -1 -18
-4 -31 -6z"/>
<path d="M4545 880 c-9 -10 -25 -19 -34 -18 -49 4 -71 -3 -71 -21 0 -14 10
-20 38 -25 56 -9 140 -7 147 3 9 16 -27 81 -45 81 -9 0 -25 -9 -35 -20z"/>
<path d="M4603 792 c-27 -4 -30 -17 -7 -26 26 -10 44 -7 44 8 0 19 -9 23 -37
18z"/>
<path d="M1920 672 c-13 -9 -21 -11 -17 -5 6 9 3 11 -6 7 -11 -4 -17 -32 -22
-105 -7 -94 -8 -99 -30 -99 -25 0 -49 22 -37 35 4 5 1 5 -6 1 -9 -5 -35 9 -73
38 -40 31 -69 46 -89 46 -35 0 -120 21 -173 43 -22 10 -35 12 -31 5 5 -7 0 -9
-14 -6 -16 5 -22 2 -22 -10 0 -15 -2 -15 -10 -2 -7 11 -10 -1 -10 -41 0 -59
-26 -109 -56 -109 -10 0 -14 -13 -14 -45 0 -25 -3 -45 -6 -45 -3 0 -31 20 -62
44 -55 43 -60 45 -133 48 -58 2 -75 0 -72 -9 3 -8 -3 -13 -13 -13 -13 0 -7 -6
15 -18 57 -28 75 -63 79 -148 l4 -74 32 -1 c17 -1 74 -2 127 -3 87 -1 98 -3
126 -27 18 -15 29 -30 25 -34 -4 -5 4 -5 18 -1 14 5 59 15 101 24 66 13 77 19
88 43 7 16 10 33 7 38 -8 12 13 71 33 95 9 10 30 28 46 38 17 11 22 18 13 14
-10 -3 -18 -2 -18 2 0 9 559 6 582 -3 9 -4 27 -23 39 -43 20 -34 22 -48 20
-194 l-2 -158 255 0 256 0 2 28 c0 15 1 36 0 47 0 11 2 15 4 8 4 -9 14 -6 37
8 22 13 50 19 90 19 36 0 56 4 52 10 -4 6 11 11 37 11 24 1 33 4 21 6 -13 2
-23 10 -23 18 0 22 -35 57 -61 60 -13 1 -28 3 -33 4 -4 0 -6 7 -3 14 4 11 -10
13 -66 12 -78 -2 -100 2 -91 16 3 5 -1 6 -9 3 -32 -12 -85 87 -103 189 -4 23
-10 34 -14 27 -6 -9 -9 -9 -15 0 -4 6 -13 9 -21 6 -18 -7 -76 13 -69 24 3 5 0
12 -6 16 -8 4 -9 3 -5 -4 9 -16 12 -16 -96 14 -51 14 -114 30 -140 35 -47 10
-118 36 -118 43 0 2 10 2 23 -1 17 -3 19 -2 6 6 -8 5 -36 12 -61 15 -64 8 -83
16 -66 28 9 6 3 8 -19 6 -18 -3 -30 -1 -27 3 10 18 -20 20 -33 3 -11 -16 -17
-17 -34 -6 -11 7 -24 10 -29 7 -5 -3 -11 -1 -15 5 -9 15 -37 11 -65 -8z m-373
-78 c-3 -3 -12 -4 -19 -1 -8 3 -5 6 6 6 11 1 17 -2 13 -5z m311 -181 c-10 -2
-28 -2 -40 0 -13 2 -5 4 17 4 22 1 32 -1 23 -4z m310 0 c-42 -2 -114 -2 -160
0 -46 1 -11 3 77 3 88 0 125 -2 83 -3z m899 -229 c-7 -7 -37 7 -37 17 0 6 9 5
21 -1 11 -7 19 -14 16 -16z"/>
<path d="M3908 613 c7 -3 16 -2 19 1 4 3 -2 6 -13 5 -11 0 -14 -3 -6 -6z"/>
<path d="M3830 579 c0 -9 -9 -19 -21 -22 -12 -3 -20 -13 -19 -24 1 -10 1 -20
0 -23 -23 -59 11 -99 85 -100 156 -1 144 -3 155 25 13 33 13 75 1 75 -5 0 -12
13 -16 28 -4 22 -11 28 -28 27 -23 -2 -50 13 -43 24 3 4 -6 8 -20 9 -13 1 -24
-2 -24 -7 0 -9 -41 -23 -49 -16 -2 3 7 9 20 14 22 9 22 10 -8 8 -24 -1 -33 -6
-33 -18z"/>
<path d="M4730 565 c14 -17 13 -18 -12 -11 -27 6 -28 5 -30 -41 l-1 -48 -7 50
c-5 36 -7 14 -8 -80 -2 -153 -15 -186 -83 -213 l-40 -16 1 -65 c3 -89 3 -88
-24 -62 -14 13 -29 20 -36 16 -6 -3 -10 -3 -9 2 3 19 -2 23 -14 11 -8 -7 -16
-35 -19 -61 l-6 -47 52 0 c29 0 59 7 70 15 16 12 56 15 188 15 127 0 168 3
169 13 1 6 1 31 -1 54 -3 58 24 98 84 128 66 33 126 33 194 -1 83 -41 104
-108 57 -178 -14 -20 -25 -39 -25 -41 0 -3 28 -5 63 -5 l62 0 -3 121 c-2 66
-1 132 2 145 9 34 41 48 123 54 l73 5 -60 48 -59 47 -116 0 c-69 0 -114 -4
-110 -9 3 -5 1 -12 -5 -16 -10 -6 -39 13 -151 102 l-66 53 -109 0 c-87 0 -115
4 -134 17 -24 16 -24 16 -10 -2z"/>
<path d="M1010 500 c0 -5 5 -10 11 -10 5 0 7 5 4 10 -3 6 -8 10 -11 10 -2 0
-4 -4 -4 -10z"/>
<path d="M583 173 c-17 -6 -16 -33 2 -56 10 -14 31 -20 77 -23 39 -3 56 -1 44
4 -18 8 -18 9 -3 15 32 12 17 33 -36 50 -56 18 -64 19 -84 10z"/>
<path d="M4930 40 c0 -5 5 -10 11 -10 5 0 7 5 4 10 -3 6 -8 10 -11 10 -2 0 -4
-4 -4 -10z"/>
<path d="M3339 21 c11 -7 9 -10 -10 -14 -13 -2 12 -4 56 -5 73 0 76 1 35 9
-25 5 -56 11 -70 14 -18 4 -21 3 -11 -4z"/>
<path d="M5873 3 c37 -2 97 -2 135 0 37 2 6 3 -68 3 -74 0 -105 -1 -67 -3z"/>
</g>
</svg>
